{
  "accessors": [
    {
      "bufferView": 2,
      "componentType": 5126,
      "count": 65532,
      "max": [
        0.7583861351013184,
        1.7580246925354004,
        0.47818756103515625
      ],
      "min": [
        -0.7583861351013184,
        -1.7580246925354004,
        -0.47818753123283386
      ],
      "type": "VEC3"
    },
    {
      "bufferView": 2,
      "byteOffset": 786384,
      "componentType": 5126,
      "count": 65532,
      "max": [
        1.0,
        1.0,
        1.0
      ],
      "min": [
        -1.0,
        -1.0,
        -1.0
      ],
      "type": "VEC3"
    },
    {
      "bufferView": 3,
      "componentType": 5126,
      "count": 65532,
      "max": [
        1.0,
        1.0,
        1.0,
        1.0
      ],
      "min": [
        -1.0,
        -1.0,
        -1.0,
        -1.0
      ],
      "type": "VEC4"
    },
    {
      "bufferView": 1,
      "componentType": 5126,
      "count": 65532,
      "max": [
        0.9981172680854797,
        0.9979278445243835
      ],
      "min": [
        0.0018827165476977825,
        0.0018827165476977825
      ],
      "type": "VEC2"
    },
    {
      "bufferView": 1,
      "byteOffset": 524256,
      "componentType": 5126,
      "count": 65532,
      "max": [
        0.9981172680854797,
        0.9979278445243835
      ],
      "min": [
        0.0018827165476977825,
        0.0018827165476977825
      ],
      "type": "VEC2"
    },
    {
      "bufferView": 1,
      "byteOffset": 1048512,
      "componentType": 5126,
      "count": 65532,
      "max": [
        0.9981172680854797,
        0.9979278445243835
      ],
      "min": [
        0.0018827165476977825,
        0.0018827165476977825
      ],
      "type": "VEC2"
    },
    {
      "bufferView": 0,
      "componentType": 5125,
      "count": 261420,
      "type": "SCALAR"
    },
    {
      "bufferView": 2,
      "byteOffset": 1572768,
      "componentType": 5126,
      "count": 9569,
      "max": [
        0.5883722901344299,
        1.690962791442871,
        0.42466533184051514
      ],
      "min": [
        -0.6853794455528259,
        -1.7580246925354004,
        -0.47818753123283386
      ],
      "type": "VEC3"
    },
    {
      "bufferView": 2,
      "byteOffset": 1687596,
      "componentType": 5126,
      "count": 9569,
      "max": [
        1.0,
        0.9999557733535767,
        0.9999842047691345
      ],
      "min": [
        -1.0,
        -0.9999999403953552,
        -0.9999257326126099
      ],
      "type": "VEC3"
    },
    {
      "bufferView": 3,
      "byteOffset": 1048512,
      "componentType": 5126,
      "count": 9569,
      "max": [
        1.0,
        0.9999849796295166,
        0.9999999403953552,
        1.0
      ],
      "min": [
        -0.9999938011169434,
        -0.9999842047691345,
        -0.9999976754188538,
        -1.0
      ],
      "type": "VEC4"
    },
    {
      "bufferView": 1,
      "byteOffset": 1572768,
      "componentType": 5126,
      "count": 9569,
      "max": [
        0.9971113801002502,
        0.997734010219574
      ],
      "min": [
        0.010188549757003784,
        0.0023952217306941748
      ],
      "type": "VEC2"
    },
    {
      "bufferView": 1,
      "byteOffset": 1649320,
      "componentType": 5126,
      "count": 9569,
      "max": [
        0.9971113801002502,
        0.997734010219574
      ],
      "min": [
        0.010188549757003784,
        0.0023952217306941748
      ],
      "type": "VEC2"
    },
    {
      "bufferView": 1,
      "byteOffset": 1725872,
      "componentType": 5126,
      "count": 9569,
      "max": [
        0.9971113801002502,
        0.997734010219574
      ],
      "min": [
        0.010188549757003784,
        0.0023952217306941748
      ],
      "type": "VEC2"
    },
    {
      "bufferView": 0,
      "byteOffset": 1045680,
      "componentType": 5125,
      "count": 28857,
      "type": "SCALAR"
    },
    {
      "bufferView": 2,
      "byteOffset": 1802424,
      "componentType": 5126,
      "count": 4651,
      "max": [
        0.12653738260269165,
        0.2353271245956421,
        0.23531079292297363
      ],
      "min": [
        -0.059177666902542114,
        -0.23548924922943115,
        -0.23550540208816528
      ],
      "type": "VEC3"
    },
    {
      "bufferView": 2,
      "byteOffset": 1858236,
      "componentType": 5126,
      "count": 4651,
      "max": [
        1.0,
        1.0,
        1.0
      ],
      "min": [
        -1.0,
        -1.0,
        -1.0
      ],
      "type": "VEC3"
    },
    {
      "bufferView": 3,
      "byteOffset": 1201616,
      "componentType": 5126,
      "count": 4651,
      "max": [
        1.0,
        1.0,
        1.0,
        1.0
      ],
      "min": [
        -1.0,
        -1.0,
        -1.0,
        1.0
      ],
      "type": "VEC4"
    },
    {
      "bufferView": 1,
      "byteOffset": 1802424,
      "componentType": 5126,
      "count": 4651,
      "max": [
        0.9993547797203064,
        0.9959779381752014
      ],
      "min": [
        0.0006452616071328521,
        0.0006452616071328521
      ],
      "type": "VEC2"
    },
    {
      "bufferView": 1,
      "byteOffset": 1839632,
      "componentType": 5126,
      "count": 4651,
      "max": [
        0.9993547797203064,
        0.9959779381752014
      ],
      "min": [
        0.0006452616071328521,
        0.0006452616071328521
      ],
      "type": "VEC2"
    },
    {
      "bufferView": 1,
      "byteOffset": 1876840,
      "componentType": 5126,
      "count": 4651,
      "max": [
        0.9993547797203064,
        0.9959779381752014
      ],
      "min": [
        0.0006452616071328521,
        0.0006452616071328521
      ],
      "type": "VEC2"
    },
    {
      "bufferView": 0,
      "byteOffset": 1161108,
      "componentType": 5125,
      "count": 16716,
      "type": "SCALAR"
    },
    {
      "bufferView": 2,
      "byteOffset": 1914048,
      "componentType": 5126,
      "count": 4651,
      "max": [
        0.12653738260269165,
        0.2353271245956421,
        0.23531079292297363
      ],
      "min": [
        -0.059177666902542114,
        -0.23548924922943115,
        -0.23550540208816528
      ],
      "type": "VEC3"
    },
    {
      "bufferView": 2,
      "byteOffset": 1969860,
      "componentType": 5126,
      "count": 4651,
      "max": [
        1.0,
        1.0,
        1.0
      ],
      "min": [
        -1.0,
        -1.0,
        -1.0
      ],
      "type": "VEC3"
    },
    {
      "bufferView": 3,
      "byteOffset": 1276032,
      "componentType": 5126,
      "count": 4651,
      "max": [
        1.0,
        1.0,
        1.0,
        1.0
      ],
      "min": [
        -1.0,
        -1.0,
        -1.0,
        1.0
      ],
      "type": "VEC4"
    },
    {
      "bufferView": 1,
      "byteOffset": 1914048,
      "componentType": 5126,
      "count": 4651,
      "max": [
        0.9993547797203064,
        0.9959779381752014
      ],
      "min": [
        0.0006452616071328521,
        0.0006452616071328521
      ],
      "type": "VEC2"
    },
    {
      "bufferView": 1,
      "byteOffset": 1951256,
      "componentType": 5126,
      "count": 4651,
      "max": [
        0.9993547797203064,
        0.9959779381752014
      ],
      "min": [
        0.0006452616071328521,
        0.0006452616071328521
      ],
      "type": "VEC2"
    },
    {
      "bufferView": 1,
      "byteOffset": 1988464,
      "componentType": 5126,
      "count": 4651,
      "max": [
        0.9993547797203064,
        0.9959779381752014
      ],
      "min": [
        0.0006452616071328521,
        0.0006452616071328521
      ],
      "type": "VEC2"
    },
    {
      "bufferView": 0,
      "byteOffset": 1227972,
      "componentType": 5125,
      "count": 16716,
      "type": "SCALAR"
    },
    {
      "bufferView": 2,
      "byteOffset": 2025672,
      "componentType": 5126,
      "count": 4651,
      "max": [
        0.12653738260269165,
        0.2353271245956421,
        0.23531079292297363
      ],
      "min": [
        -0.059177666902542114,
        -0.23548924922943115,
        -0.23550540208816528
      ],
      "type": "VEC3"
    },
    {
      "bufferView": 2,
      "byteOffset": 2081484,
      "componentType": 5126,
      "count": 4651,
      "max": [
        1.0,
        1.0,
        1.0
      ],
      "min": [
        -1.0,
        -1.0,
        -1.0
      ],
      "type": "VEC3"
    },
    {
      "bufferView": 3,
      "byteOffset": 1350448,
      "componentType": 5126,
      "count": 4651,
      "max": [
        1.0,
        1.0,
        1.0,
        1.0
      ],
      "min": [
        -1.0,
        -1.0,
        -1.0,
        1.0
      ],
      "type": "VEC4"
    },
    {
      "bufferView": 1,
      "byteOffset": 2025672,
      "componentType": 5126,
      "count": 4651,
      "max": [
        0.9993547797203064,
        0.9959779381752014
      ],
      "min": [
        0.0006452616071328521,
        0.0006452616071328521
      ],
      "type": "VEC2"
    },
    {
      "bufferView": 1,
      "byteOffset": 2062880,
      "componentType": 5126,
      "count": 4651,
      "max": [
        0.9993547797203064,
        0.9959779381752014
      ],
      "min": [
        0.0006452616071328521,
        0.0006452616071328521
      ],
      "type": "VEC2"
    },
    {
      "bufferView": 1,
      "byteOffset": 2100088,
      "componentType": 5126,
      "count": 4651,
      "max": [
        0.9993547797203064,
        0.9959779381752014
      ],
      "min": [
        0.0006452616071328521,
        0.0006452616071328521
      ],
      "type": "VEC2"
    },
    {
      "bufferView": 0,
      "byteOffset": 1294836,
      "componentType": 5125,
      "count": 16716,
      "type": "SCALAR"
    },
    {
      "bufferView": 2,
      "byteOffset": 2137296,
      "componentType": 5126,
      "count": 4651,
      "max": [
        0.12653738260269165,
        0.2353271245956421,
        0.23531079292297363
      ],
      "min": [
        -0.059177666902542114,
        -0.23548924922943115,
        -0.23550540208816528
      ],
      "type": "VEC3"
    },
    {
      "bufferView": 2,
      "byteOffset": 2193108,
      "componentType": 5126,
      "count": 4651,
      "max": [
        1.0,
        1.0,
        1.0
      ],
      "min": [
        -1.0,
        -1.0,
        -1.0
      ],
      "type": "VEC3"
    },
    {
      "bufferView": 3,
      "byteOffset": 1424864,
      "componentType": 5126,
      "count": 4651,
      "max": [
        1.0,
        1.0,
        1.0,
        1.0
      ],
      "min": [
        -1.0,
        -1.0,
        -1.0,
        -1.0
      ],
      "type": "VEC4"
    },
    {
      "bufferView": 1,
      "byteOffset": 2137296,
      "componentType": 5126,
      "count": 4651,
      "max": [
        0.9993547797203064,
        0.9959779381752014
      ],
      "min": [
        0.0006452616071328521,
        0.0006452616071328521
      ],
      "type": "VEC2"
    },
    {
      "bufferView": 1,
      "byteOffset": 2174504,
      "componentType": 5126,
      "count": 4651,
      "max": [
        0.9993547797203064,
        0.9959779381752014
      ],
      "min": [
        0.0006452616071328521,
        0.0006452616071328521
      ],
      "type": "VEC2"
    },
    {
      "bufferView": 1,
      "byteOffset": 2211712,
      "componentType": 5126,
      "count": 4651,
      "max": [
        0.9993547797203064,
        0.9959779381752014
      ],
      "min": [
        0.0006452616071328521,
        0.0006452616071328521
      ],
      "type": "VEC2"
    },
    {
      "bufferView": 0,
      "byteOffset": 1361700,
      "componentType": 5125,
      "count": 16716,
      "type": "SCALAR"
    }
  ],
  "asset": {
    "extras": {
      "author": "diw3d (https://sketchfab.com/diwdiw)",
      "license": "CC-BY-4.0 (http://creativecommons.org/licenses/by/4.0/)",
      "source": "https://sketchfab.com/3d-models/mercedes-benz-190-004b5ef0bc1d4a42940e95bffd01f64e",
      "title": "Mercedes Benz 190"
    },
    "generator": "Sketchfab-15.25.0",
    "version": "2.0"
  },
  "bufferViews": [
    {
      "buffer": 0,
      "byteLength": 1428564,
      "name": "floatBufferViews",
      "target": 34963
    },
    {
      "buffer": 0,
      "byteLength": 2248920,
      "byteOffset": 1428564,
      "byteStride": 8,
      "name": "floatBufferViews",
      "target": 34962
    },
    {
      "buffer": 0,
      "byteLength": 2248920,
      "byteOffset": 3677484,
      "byteStride": 12,
      "name": "floatBufferViews",
      "target": 34962
    },
    {
      "buffer": 0,
      "byteLength": 1499280,
      "byteOffset": 5926404,
      "byteStride": 16,
      "name": "floatBufferViews",
      "target": 34962
    }
  ],
  "buffers": [
    {
      "byteLength": 7425684,
      "uri": "scene.bin"
    }
  ],
  "images": [
    {
      "uri": "textures/Merc_Body_baseColor.png"
    },
    {
      "uri": "textures/Merc_Body_metallicRoughness.png"
    },
    {
      "uri": "textures/Merc_Body_normal.png"
    },
    {
      "uri": "textures/Merc_Tyres_baseColor.png"
    },
    {
      "uri": "textures/Merc_Tyres_metallicRoughness.png"
    },
    {
      "uri": "textures/Merc_Tyres_normal.png"
    }
  ],
  "materials": [
    {
      "doubleSided": true,
      "name": "Merc_Body",
      "normalTexture": {
        "index": 2,
        "texCoord": 1
      },
      "pbrMetallicRoughness": {
        "baseColorTexture": {
          "index": 0
        },
        "metallicRoughnessTexture": {
          "index": 1
        }
      }
    },
    {
      "doubleSided": true,
      "name": "Merc_Tyres",
      "normalTexture": {
        "index": 5
      },
      "pbrMetallicRoughness": {
        "baseColorTexture": {
          "index": 3
        },
        "metallicRoughnessTexture": {
          "index": 4
        }
      }
    }
  ],
  "meshes": [
    {
      "name": "Plane.215_Merc Body_0",
      "primitives": [
        {
          "attributes": {
            "NORMAL": 1,
            "POSITION": 0,
            "TANGENT": 2,
            "TEXCOORD_0": 3,
            "TEXCOORD_1": 4,
            "TEXCOORD_2": 5
          },
          "indices": 6,
          "material": 0,
          "mode": 4
        }
      ]
    },
    {
      "name": "Plane.215_Merc Body_0",
      "primitives": [
        {
          "attributes": {
            "NORMAL": 8,
            "POSITION": 7,
            "TANGENT": 9,
            "TEXCOORD_0": 10,
            "TEXCOORD_1": 11,
            "TEXCOORD_2": 12
          },
          "indices": 13,
          "material": 0,
          "mode": 4
        }
      ]
    },
    {
      "name": "Circle.003_Merc Tyres_0",
      "primitives": [
        {
          "attributes": {
            "NORMAL": 15,
            "POSITION": 14,
            "TANGENT": 16,
            "TEXCOORD_0": 17,
            "TEXCOORD_1": 18,
            "TEXCOORD_2": 19
          },
          "indices": 20,
          "material": 1,
          "mode": 4
        }
      ]
    },
    {
      "name": "Circle.004_Merc Tyres_0",
      "primitives": [
        {
          "attributes": {
            "NORMAL": 22,
            "POSITION": 21,
            "TANGENT": 23,
            "TEXCOORD_0": 24,
            "TEXCOORD_1": 25,
            "TEXCOORD_2": 26
          },
          "indices": 27,
          "material": 1,
          "mode": 4
        }
      ]
    },
    {
      "name": "Circle.002_Merc Tyres_0",
      "primitives": [
        {
          "attributes": {
            "NORMAL": 29,
            "POSITION": 28,
            "TANGENT": 30,
            "TEXCOORD_0": 31,
            "TEXCOORD_1": 32,
            "TEXCOORD_2": 33
          },
          "indices": 34,
          "material": 1,
          "mode": 4
        }
      ]
    },
    {
      "name": "Circle.001_Merc Tyres_0",
      "primitives": [
        {
          "attributes": {
            "NORMAL": 36,
            "POSITION": 35,
            "TANGENT": 37,
            "TEXCOORD_0": 38,
            "TEXCOORD_1": 39,
            "TEXCOORD_2": 40
          },
          "indices": 41,
          "material": 1,
          "mode": 4
        }
      ]
    }
  ],
  "nodes": [
    {
      "children": [
        1
      ],
      "matrix": [
        1.0,
        0.0,
        0.0,
        0.0,
        0.0,
        2.220446049250313e-16,
        -1.0,
        0.0,
        0.0,
        1.0,
        2.220446049250313e-16,
        0.0,
        0.0,
        0.0,
        0.0,
        1.0
      ],
      "name": "Sketchfab_model"
    },
    {
      "children": [
        2
      ],
      "matrix": [
        0.009999999776482582,
        0.0,
        0.0,
        0.0,
        0.0,
        0.0,
        0.009999999776482582,
        0.0,
        0.0,
        -0.009999999776482582,
        0.0,
        0.0,
        0.0,
        0.0,
        0.0,
        1.0
      ],
      "name": "Mercedes-Benz 190.fbx"
    },
    {
      "children": [
        3,
        6,
        8,
        10,
        12
      ],
      "name": "RootNode"
    },
    {
      "children": [
        4,
        5
      ],
      "matrix": [
        100.0,
        0.0,
        0.0,
        0.0,
        0.0,
        -0.09724339555681326,
        -99.99997560679334,
        0.0,
        0.0,
        99.99998323618426,
        -0.09724340297589386,
        0.0,
        0.0005900859832763672,
        60.14230728149414,
        5.170083045959473,
        1.0
      ],
      "name": "Plane.215"
    },
    {
      "mesh": 0,
      "name": "Plane.215_Merc Body_0"
    },
    {
      "mesh": 1,
      "name": "Plane.215_Merc Body_0"
    },
    {
      "children": [
        7
      ],
      "matrix": [
        -99.99999999999885,
        -7.342760877812078e-09,
        -1.5099579909783704e-05,
        0.0,
        -1.5099574783095576e-05,
        0.04860915297406341,
        99.9999424093768,
        0.0,
        -2.978753420624595e-12,
        99.99998055634607,
        -0.04860917151699219,
        0.0,
        61.95643615722656,
        23.805694580078125,
        121.2424545288086,
        1.0
      ],
      "name": "Circle.003"
    },
    {
      "mesh": 2,
      "name": "Circle.003_Merc Tyres_0"
    },
    {
      "children": [
        9
      ],
      "matrix": [
        -99.99999999999885,
        -7.342760877812078e-09,
        -1.5099579909783704e-05,
        0.0,
        -1.5099574783095576e-05,
        0.04860915297406341,
        99.9999424093768,
        0.0,
        -2.978753420624595e-12,
        99.99998055634607,
        -0.04860917151699219,
        0.0,
        61.95796203613281,
        23.763721466064453,
        -84.43731689453125,
        1.0
      ],
      "name": "Circle.004"
    },
    {
      "mesh": 3,
      "name": "Circle.004_Merc Tyres_0"
    },
    {
      "children": [
        11
      ],
      "matrix": [
        100.0,
        0.0,
        0.0,
        0.0,
        -0.0,
        -0.09724332878508782,
        -99.99990694227502,
        0.0,
        0.0,
        99.99996034801148,
        -0.09724338071865204,
        0.0,
        -61.97856140136719,
        23.763715744018555,
        -84.4388427734375,
        1.0
      ],
      "name": "Circle.002"
    },
    {
      "mesh": 4,
      "name": "Circle.002_Merc Tyres_0"
    },
    {
      "children": [
        13
      ],
      "matrix": [
        100.0,
        0.0,
        0.0,
        0.0,
        -0.0,
        -0.09724332878508782,
        -99.99990694227502,
        0.0,
        0.0,
        99.99996034801148,
        -0.09724338071865204,
        0.0,
        -61.997230529785156,
        23.805736541748047,
        121.24090576171875,
        1.0
      ],
      "name": "Circle.001"
    },
    {
      "mesh": 5,
      "name": "Circle.001_Merc Tyres_0"
    }
  ],
  "samplers": [
    {
      "magFilter": 9729,
      "minFilter": 9987,
      "wrapS": 10497,
      "wrapT": 10497
    }
  ],
  "scene": 0,
  "scenes": [
    {
      "name": "Sketchfab_Scene",
      "nodes": [
        0
      ]
    }
  ],
  "textures": [
    {
      "sampler": 0,
      "source": 0
    },
    {
      "sampler": 0,
      "source": 1
    },
    {
      "sampler": 0,
      "source": 2
    },
    {
      "sampler": 0,
      "source": 3
    },
    {
      "sampler": 0,
      "source": 4
    },
    {
      "sampler": 0,
      "source": 5
    }
  ]
}
