{
	"asset":{
		"generator":"Khronos glTF Blender I/O v3.6.27",
		"version":"2.0"
	},
	"extensionsUsed":[
		"KHR_materials_clearcoat",
		"KHR_materials_transmission",
		"KHR_materials_specular",
		"KHR_materials_ior"
	],
	"scene":0,
	"scenes":[
		{
			"name":"Scene",
			"nodes":[
				10
			]
		}
	],
	"nodes":[
		{
			"mesh":0,
			"name":"GLASS.002",
			"scale":[
				1.0004748106002808,
				1,
				1
			],
			"translation":[
				0.0985954999923706,
				0.5185956358909607,
				-0.49072322249412537
			]
		},
		{
			"children":[
				0
			],
			"mesh":1,
			"name":"DOOR L.007",
			"scale":[
				0.9995254278182983,
				1,
				1
			],
			"translation":[
				-0.675661563873291,
				0.5708493590354919,
				0.6972867846488953
			]
		},
		{
			"mesh":2,
			"name":"GLASS.001",
			"scale":[
				1.0004748106002808,
				1,
				1
			],
			"translation":[
				-0.0985954999923706,
				0.5185956358909607,
				-0.4907231628894806
			]
		},
		{
			"children":[
				2
			],
			"mesh":3,
			"name":"DOOR R.008",
			"scale":[
				0.9995254278182983,
				1,
				1
			],
			"translation":[
				0.675661563873291,
				0.5708493590354919,
				0.6972867250442505
			]
		},
		{
			"mesh":4,
			"name":"INTERIOR",
			"scale":[
				0.9786681532859802,
				0.9791328310966492,
				0.9791328310966492
			],
			"translation":[
				-0.038046348839998245,
				0.718583345413208,
				0.5602207779884338
			]
		},
		{
			"mesh":5,
			"name":"WHEEL_L1.001",
			"scale":[
				0.9995254278182983,
				1,
				1
			],
			"translation":[
				0.4719216227531433,
				0.26610898971557617,
				1.0706257820129395
			]
		},
		{
			"mesh":6,
			"name":"WHEEL_L2.001",
			"scale":[
				0.9995254278182983,
				1,
				1
			],
			"translation":[
				0.5730506181716919,
				0.26610898971557617,
				-0.7838966846466064
			]
		},
		{
			"mesh":7,
			"name":"WHEEL_R1.001",
			"scale":[
				0.9995254278182983,
				1,
				1
			],
			"translation":[
				-0.47192156314849854,
				0.26610898971557617,
				1.0706257820129395
			]
		},
		{
			"mesh":8,
			"name":"WHEEL_R2.001",
			"scale":[
				0.9995254278182983,
				1,
				1
			],
			"translation":[
				-0.5730506181716919,
				0.26610898971557617,
				-0.7838966846466064
			]
		},
		{
			"mesh":9,
			"name":"WINDOWS.003",
			"translation":[
				0,
				1.1107919216156006,
				-0.4159998893737793
			]
		},
		{
			"children":[
				1,
				3,
				4,
				5,
				6,
				7,
				8,
				9
			],
			"mesh":10,
			"name":"MICRO_CAR",
			"scale":[
				1.0004748106002808,
				1,
				1
			]
		}
	],
	"materials":[
		{
			"alphaMode":"BLEND",
			"doubleSided":true,
			"extensions":{
				"KHR_materials_clearcoat":{
					"clearcoatFactor":0.03181818127632141,
					"clearcoatRoughnessFactor":0.37454500794410706
				},
				"KHR_materials_transmission":{
					"transmissionFactor":0.9300000071525574
				},
				"KHR_materials_specular":{
					"specularColorFactor":[
						1,
						1,
						1
					]
				},
				"KHR_materials_ior":{
					"ior":1
				}
			},
			"name":"WINDOW",
			"pbrMetallicRoughness":{
				"baseColorTexture":{
					"index":0
				},
				"metallicFactor":0,
				"roughnessFactor":0
			}
		},
		{
			"doubleSided":true,
			"extensions":{
				"KHR_materials_specular":{
					"specularColorFactor":[
						0.02371357561437425,
						0.02371357561437425,
						0.02371357561437425
					]
				},
				"KHR_materials_ior":{
					"ior":1.4500000476837158
				}
			},
			"name":"BASIC COLOR",
			"pbrMetallicRoughness":{
				"baseColorTexture":{
					"index":1
				},
				"metallicFactor":0.5,
				"roughnessFactor":0.5
			}
		}
	],
	"meshes":[
		{
			"name":"Cube.153",
			"primitives":[
				{
					"attributes":{
						"POSITION":0,
						"NORMAL":1,
						"TEXCOORD_0":2
					},
					"indices":3,
					"material":0
				}
			]
		},
		{
			"name":"Cube.156",
			"primitives":[
				{
					"attributes":{
						"POSITION":4,
						"NORMAL":5,
						"TEXCOORD_0":6
					},
					"indices":7,
					"material":1
				}
			]
		},
		{
			"name":"Cube.154",
			"primitives":[
				{
					"attributes":{
						"POSITION":8,
						"NORMAL":9,
						"TEXCOORD_0":10
					},
					"indices":11,
					"material":0
				}
			]
		},
		{
			"name":"Cube.155",
			"primitives":[
				{
					"attributes":{
						"POSITION":12,
						"NORMAL":13,
						"TEXCOORD_0":14
					},
					"indices":15,
					"material":1
				}
			]
		},
		{
			"name":"Torus.003",
			"primitives":[
				{
					"attributes":{
						"POSITION":16,
						"NORMAL":17,
						"TEXCOORD_0":18,
						"TEXCOORD_1":19
					},
					"indices":20,
					"material":1
				}
			]
		},
		{
			"name":"Circle.144",
			"primitives":[
				{
					"attributes":{
						"POSITION":21,
						"NORMAL":22,
						"TEXCOORD_0":23
					},
					"indices":24,
					"material":1
				}
			]
		},
		{
			"name":"Circle.145",
			"primitives":[
				{
					"attributes":{
						"POSITION":25,
						"NORMAL":26,
						"TEXCOORD_0":27
					},
					"indices":24,
					"material":1
				}
			]
		},
		{
			"name":"Circle.101",
			"primitives":[
				{
					"attributes":{
						"POSITION":28,
						"NORMAL":29,
						"TEXCOORD_0":30
					},
					"indices":31,
					"material":1
				}
			]
		},
		{
			"name":"Circle.100",
			"primitives":[
				{
					"attributes":{
						"POSITION":32,
						"NORMAL":33,
						"TEXCOORD_0":34
					},
					"indices":31,
					"material":1
				}
			]
		},
		{
			"name":"Cube.121",
			"primitives":[
				{
					"attributes":{
						"POSITION":35,
						"NORMAL":36,
						"TEXCOORD_0":37
					},
					"indices":38,
					"material":0
				}
			]
		},
		{
			"name":"Cube.157",
			"primitives":[
				{
					"attributes":{
						"POSITION":39,
						"NORMAL":40,
						"TEXCOORD_0":41
					},
					"indices":42,
					"material":1
				}
			]
		}
	],
	"textures":[
		{
			"sampler":0,
			"source":0
		},
		{
			"sampler":0,
			"source":0
		}
	],
	"images":[
		{
			"bufferView":4,
			"mimeType":"image/png",
			"name":"001_COLOR_BASIC"
		}
	],
	"accessors":[
		{
			"bufferView":0,
			"componentType":5126,
			"count":4,
			"max":[
				0.05035489797592163,
				0.19012612104415894,
				0.4285106360912323
			],
			"min":[
				-0.05035489797592163,
				-0.19012612104415894,
				-0.4285106360912323
			],
			"type":"VEC3"
		},
		{
			"bufferView":1,
			"componentType":5126,
			"count":4,
			"type":"VEC3"
		},
		{
			"bufferView":2,
			"componentType":5126,
			"count":4,
			"type":"VEC2"
		},
		{
			"bufferView":3,
			"componentType":5123,
			"count":6,
			"type":"SCALAR"
		},
		{
			"bufferView":5,
			"componentType":5126,
			"count":292,
			"max":[
				0.16748011112213135,
				0.7543461322784424,
				0.004150986671447754
			],
			"min":[
				-0.16827034950256348,
				-0.30798086524009705,
				-0.9602687358856201
			],
			"type":"VEC3"
		},
		{
			"bufferView":6,
			"componentType":5126,
			"count":292,
			"type":"VEC3"
		},
		{
			"bufferView":7,
			"componentType":5126,
			"count":292,
			"type":"VEC2"
		},
		{
			"bufferView":8,
			"componentType":5123,
			"count":462,
			"type":"SCALAR"
		},
		{
			"bufferView":9,
			"componentType":5126,
			"count":4,
			"max":[
				0.05035489797592163,
				0.19012612104415894,
				0.4285106360912323
			],
			"min":[
				-0.05035489797592163,
				-0.19012612104415894,
				-0.4285106360912323
			],
			"type":"VEC3"
		},
		{
			"bufferView":10,
			"componentType":5126,
			"count":4,
			"type":"VEC3"
		},
		{
			"bufferView":11,
			"componentType":5126,
			"count":4,
			"type":"VEC2"
		},
		{
			"bufferView":12,
			"componentType":5123,
			"count":6,
			"type":"SCALAR"
		},
		{
			"bufferView":13,
			"componentType":5126,
			"count":292,
			"max":[
				0.16827034950256348,
				0.7543461322784424,
				0.004150986671447754
			],
			"min":[
				-0.16748011112213135,
				-0.30798086524009705,
				-0.9602687358856201
			],
			"type":"VEC3"
		},
		{
			"bufferView":14,
			"componentType":5126,
			"count":292,
			"type":"VEC3"
		},
		{
			"bufferView":15,
			"componentType":5126,
			"count":292,
			"type":"VEC2"
		},
		{
			"bufferView":16,
			"componentType":5123,
			"count":462,
			"type":"SCALAR"
		},
		{
			"bufferView":17,
			"componentType":5126,
			"count":1208,
			"max":[
				0.6526479125022888,
				0.4410903751850128,
				0.29498663544654846
			],
			"min":[
				-0.5854982137680054,
				-0.4765315651893616,
				-1.3299448490142822
			],
			"type":"VEC3"
		},
		{
			"bufferView":18,
			"componentType":5126,
			"count":1208,
			"type":"VEC3"
		},
		{
			"bufferView":19,
			"componentType":5126,
			"count":1208,
			"type":"VEC2"
		},
		{
			"bufferView":20,
			"componentType":5126,
			"count":1208,
			"type":"VEC2"
		},
		{
			"bufferView":21,
			"componentType":5123,
			"count":2022,
			"type":"SCALAR"
		},
		{
			"bufferView":22,
			"componentType":5126,
			"count":333,
			"max":[
				0.20383687317371368,
				0.26742327213287354,
				0.26742321252822876
			],
			"min":[
				-0.0014827847480773926,
				-0.26742324233055115,
				-0.2674233019351959
			],
			"type":"VEC3"
		},
		{
			"bufferView":23,
			"componentType":5126,
			"count":333,
			"type":"VEC3"
		},
		{
			"bufferView":24,
			"componentType":5126,
			"count":333,
			"type":"VEC2"
		},
		{
			"bufferView":25,
			"componentType":5123,
			"count":870,
			"type":"SCALAR"
		},
		{
			"bufferView":26,
			"componentType":5126,
			"count":333,
			"max":[
				0.10265983641147614,
				0.26742327213287354,
				0.26742327213287354
			],
			"min":[
				-0.10265983641147614,
				-0.26742327213287354,
				-0.26742327213287354
			],
			"type":"VEC3"
		},
		{
			"bufferView":27,
			"componentType":5126,
			"count":333,
			"type":"VEC3"
		},
		{
			"bufferView":28,
			"componentType":5126,
			"count":333,
			"type":"VEC2"
		},
		{
			"bufferView":29,
			"componentType":5126,
			"count":333,
			"max":[
				0.0014827251434326172,
				0.26742327213287354,
				0.26742321252822876
			],
			"min":[
				-0.20383691787719727,
				-0.26742324233055115,
				-0.2674233019351959
			],
			"type":"VEC3"
		},
		{
			"bufferView":30,
			"componentType":5126,
			"count":333,
			"type":"VEC3"
		},
		{
			"bufferView":31,
			"componentType":5126,
			"count":333,
			"type":"VEC2"
		},
		{
			"bufferView":32,
			"componentType":5123,
			"count":870,
			"type":"SCALAR"
		},
		{
			"bufferView":33,
			"componentType":5126,
			"count":333,
			"max":[
				0.10265982151031494,
				0.26742327213287354,
				0.26742327213287354
			],
			"min":[
				-0.10265982151031494,
				-0.26742327213287354,
				-0.26742327213287354
			],
			"type":"VEC3"
		},
		{
			"bufferView":34,
			"componentType":5126,
			"count":333,
			"type":"VEC3"
		},
		{
			"bufferView":35,
			"componentType":5126,
			"count":333,
			"type":"VEC2"
		},
		{
			"bufferView":36,
			"componentType":5126,
			"count":16,
			"max":[
				0.6294226050376892,
				0.19511139392852783,
				1.1665016412734985
			],
			"min":[
				-0.6294226050376892,
				-0.23125046491622925,
				-0.716282844543457
			],
			"type":"VEC3"
		},
		{
			"bufferView":37,
			"componentType":5126,
			"count":16,
			"type":"VEC3"
		},
		{
			"bufferView":38,
			"componentType":5126,
			"count":16,
			"type":"VEC2"
		},
		{
			"bufferView":39,
			"componentType":5123,
			"count":24,
			"type":"SCALAR"
		},
		{
			"bufferView":40,
			"componentType":5126,
			"count":1832,
			"max":[
				0.7213045954704285,
				1.3822094202041626,
				1.6031150817871094
			],
			"min":[
				-0.7213045954704285,
				0.1876404732465744,
				-1.420503854751587
			],
			"type":"VEC3"
		},
		{
			"bufferView":41,
			"componentType":5126,
			"count":1832,
			"type":"VEC3"
		},
		{
			"bufferView":42,
			"componentType":5126,
			"count":1832,
			"type":"VEC2"
		},
		{
			"bufferView":43,
			"componentType":5123,
			"count":3090,
			"type":"SCALAR"
		}
	],
	"bufferViews":[
		{
			"buffer":0,
			"byteLength":48,
			"byteOffset":0,
			"target":34962
		},
		{
			"buffer":0,
			"byteLength":48,
			"byteOffset":48,
			"target":34962
		},
		{
			"buffer":0,
			"byteLength":32,
			"byteOffset":96,
			"target":34962
		},
		{
			"buffer":0,
			"byteLength":12,
			"byteOffset":128,
			"target":34963
		},
		{
			"buffer":0,
			"byteLength":95679,
			"byteOffset":140
		},
		{
			"buffer":0,
			"byteLength":3504,
			"byteOffset":95820,
			"target":34962
		},
		{
			"buffer":0,
			"byteLength":3504,
			"byteOffset":99324,
			"target":34962
		},
		{
			"buffer":0,
			"byteLength":2336,
			"byteOffset":102828,
			"target":34962
		},
		{
			"buffer":0,
			"byteLength":924,
			"byteOffset":105164,
			"target":34963
		},
		{
			"buffer":0,
			"byteLength":48,
			"byteOffset":106088,
			"target":34962
		},
		{
			"buffer":0,
			"byteLength":48,
			"byteOffset":106136,
			"target":34962
		},
		{
			"buffer":0,
			"byteLength":32,
			"byteOffset":106184,
			"target":34962
		},
		{
			"buffer":0,
			"byteLength":12,
			"byteOffset":106216,
			"target":34963
		},
		{
			"buffer":0,
			"byteLength":3504,
			"byteOffset":106228,
			"target":34962
		},
		{
			"buffer":0,
			"byteLength":3504,
			"byteOffset":109732,
			"target":34962
		},
		{
			"buffer":0,
			"byteLength":2336,
			"byteOffset":113236,
			"target":34962
		},
		{
			"buffer":0,
			"byteLength":924,
			"byteOffset":115572,
			"target":34963
		},
		{
			"buffer":0,
			"byteLength":14496,
			"byteOffset":116496,
			"target":34962
		},
		{
			"buffer":0,
			"byteLength":14496,
			"byteOffset":130992,
			"target":34962
		},
		{
			"buffer":0,
			"byteLength":9664,
			"byteOffset":145488,
			"target":34962
		},
		{
			"buffer":0,
			"byteLength":9664,
			"byteOffset":155152,
			"target":34962
		},
		{
			"buffer":0,
			"byteLength":4044,
			"byteOffset":164816,
			"target":34963
		},
		{
			"buffer":0,
			"byteLength":3996,
			"byteOffset":168860,
			"target":34962
		},
		{
			"buffer":0,
			"byteLength":3996,
			"byteOffset":172856,
			"target":34962
		},
		{
			"buffer":0,
			"byteLength":2664,
			"byteOffset":176852,
			"target":34962
		},
		{
			"buffer":0,
			"byteLength":1740,
			"byteOffset":179516,
			"target":34963
		},
		{
			"buffer":0,
			"byteLength":3996,
			"byteOffset":181256,
			"target":34962
		},
		{
			"buffer":0,
			"byteLength":3996,
			"byteOffset":185252,
			"target":34962
		},
		{
			"buffer":0,
			"byteLength":2664,
			"byteOffset":189248,
			"target":34962
		},
		{
			"buffer":0,
			"byteLength":3996,
			"byteOffset":191912,
			"target":34962
		},
		{
			"buffer":0,
			"byteLength":3996,
			"byteOffset":195908,
			"target":34962
		},
		{
			"buffer":0,
			"byteLength":2664,
			"byteOffset":199904,
			"target":34962
		},
		{
			"buffer":0,
			"byteLength":1740,
			"byteOffset":202568,
			"target":34963
		},
		{
			"buffer":0,
			"byteLength":3996,
			"byteOffset":204308,
			"target":34962
		},
		{
			"buffer":0,
			"byteLength":3996,
			"byteOffset":208304,
			"target":34962
		},
		{
			"buffer":0,
			"byteLength":2664,
			"byteOffset":212300,
			"target":34962
		},
		{
			"buffer":0,
			"byteLength":192,
			"byteOffset":214964,
			"target":34962
		},
		{
			"buffer":0,
			"byteLength":192,
			"byteOffset":215156,
			"target":34962
		},
		{
			"buffer":0,
			"byteLength":128,
			"byteOffset":215348,
			"target":34962
		},
		{
			"buffer":0,
			"byteLength":48,
			"byteOffset":215476,
			"target":34963
		},
		{
			"buffer":0,
			"byteLength":21984,
			"byteOffset":215524,
			"target":34962
		},
		{
			"buffer":0,
			"byteLength":21984,
			"byteOffset":237508,
			"target":34962
		},
		{
			"buffer":0,
			"byteLength":14656,
			"byteOffset":259492,
			"target":34962
		},
		{
			"buffer":0,
			"byteLength":6180,
			"byteOffset":274148,
			"target":34963
		}
	],
	"samplers":[
		{
			"magFilter":9729,
			"minFilter":9987
		}
	],
	"buffers":[
		{
			"byteLength":280328,
			"uri":"data:application/octet-stream;base64,"
		}
	]
}
