{
	"asset":{
		"generator":"Khronos glTF Blender I/O v4.0.44",
		"version":"2.0"
	},
	"scene":0,
	"scenes":[
		{
			"name":"Scene",
			"nodes":[
				4,
				11,
				12,
				13,
				14,
				15,
				16,
				17,
				18,
				19
			]
		}
	],
	"nodes":[
		{
			"name":"Board 16-9",
			"translation":[
				16.203737258911133,
				6.482414245605469,
				-3.022632122039795
			]
		},
		{
			"name":"Frame 16-9",
			"translation":[
				16.203737258911133,
				6.482414245605469,
				-3.022632122039795
			]
		},
		{
			"children":[
				0,
				1
			],
			"name":"RootNode"
		},
		{
			"children":[
				2
			],
			"name":"19b55c6d9e804c43a72714989d491082.fbx",
			"rotation":[
				0.70710688829422,
				0,
				0,
				0.7071066498756409
			]
		},
		{
			"children":[
				3
			],
			"name":"Sketchfab_model",
			"rotation":[
				-0.7071066498756409,
				0,
				0,
				0.70710688829422
			]
		},
		{
			"mesh":0,
			"name":"Board 16-9_Board_0"
		},
		{
			"children":[
				5
			],
			"name":"Board 16-9.001",
			"translation":[
				16.203737258911133,
				6.482414245605469,
				-3.022632122039795
			]
		},
		{
			"mesh":1,
			"name":"Frame 16-9_02 - Default_0"
		},
		{
			"children":[
				7
			],
			"name":"Frame 16-9.001",
			"translation":[
				16.203737258911133,
				6.482414245605469,
				-3.022632122039795
			]
		},
		{
			"children":[
				6,
				8
			],
			"name":"RootNode.001"
		},
		{
			"children":[
				9
			],
			"name":"19b55c6d9e804c43a72714989d491082.fbx.001",
			"rotation":[
				0.70710688829422,
				0,
				0,
				0.7071066498756409
			]
		},
		{
			"children":[
				10
			],
			"name":"Sketchfab_model.001",
			"rotation":[
				-0.70710688829422,
				0,
				0,
				0.7071066498756409
			]
		},
		{
			"mesh":2,
			"name":"Title",
			"rotation":[
				0.70509272813797,
				0,
				0,
				0.7091151475906372
			],
			"translation":[
				15.619600296020508,
				9.388978958129883,
				-2.6462182998657227
			]
		},
		{
			"mesh":3,
			"name":"opis",
			"rotation":[
				0.70509272813797,
				0,
				0,
				0.7091151475906372
			],
			"translation":[
				15.619600296020508,
				8.747598648071289,
				-2.6462182998657227
			]
		},
		{
			"mesh":4,
			"name":"Title.001",
			"rotation":[
				0.70509272813797,
				0,
				0,
				0.7091151475906372
			],
			"translation":[
				15.619600296020508,
				5.213662147521973,
				-2.6462182998657227
			]
		},
		{
			"mesh":5,
			"name":"opis.001",
			"rotation":[
				0.70509272813797,
				0,
				0,
				0.7091151475906372
			],
			"translation":[
				15.619600296020508,
				4.58467435836792,
				-2.6462182998657227
			]
		},
		{
			"mesh":6,
			"name":"Title.002",
			"rotation":[
				0.70509272813797,
				0,
				0,
				0.7091151475906372
			],
			"translation":[
				15.619600296020508,
				7.336087226867676,
				-2.6462182998657227
			]
		},
		{
			"mesh":7,
			"name":"opis.002",
			"rotation":[
				0.70509272813797,
				0,
				0,
				0.7091151475906372
			],
			"translation":[
				15.619600296020508,
				6.757878303527832,
				-2.6462182998657227
			]
		},
		{
			"mesh":8,
			"name":"GitHub-logo",
			"rotation":[
				0.7071068286895752,
				0,
				0,
				0.7071068286895752
			],
			"scale":[
				1.2972697019577026,
				1,
				1.2972697019577026
			],
			"translation":[
				11.848899841308594,
				4.534560203552246,
				-2.638360023498535
			]
		},
		{
			"mesh":9,
			"name":"spring-icon-256x256-2efvkvky",
			"rotation":[
				0.7071068286895752,
				0,
				0,
				0.7071068286895752
			],
			"scale":[
				4.297251224517822,
				1,
				4.297251224517822
			],
			"translation":[
				11.922760963439941,
				7.9037628173828125,
				-2.638360023498535
			]
		}
	],
	"materials":[
		{
			"doubleSided":true,
			"name":"Board.001",
			"pbrMetallicRoughness":{
				"baseColorFactor":[
					0.4310835003852844,
					0.3826519846916199,
					0.3627702593803406,
					1
				],
				"metallicFactor":0.7009345889091492,
				"roughnessFactor":0.5065420866012573
			}
		},
		{
			"doubleSided":true,
			"name":"02_-_Default.001",
			"pbrMetallicRoughness":{
				"baseColorFactor":[
					0.9215689897537231,
					0.9215689897537231,
					0.9215689897537231,
					1
				],
				"metallicFactor":0,
				"roughnessFactor":0.6000000238418579
			}
		},
		{
			"doubleSided":true,
			"name":"Material.007",
			"pbrMetallicRoughness":{
				"baseColorFactor":[
					0.800000011920929,
					0.800000011920929,
					0.800000011920929,
					1
				],
				"metallicFactor":0,
				"roughnessFactor":0.5
			}
		},
		{
			"alphaMode":"BLEND",
			"doubleSided":true,
			"name":"GitHub-logo",
			"pbrMetallicRoughness":{
				"baseColorTexture":{
					"index":0
				},
				"metallicFactor":0,
				"roughnessFactor":0.5
			}
		},
		{
			"alphaMode":"BLEND",
			"doubleSided":true,
			"name":"spring-icon-256x256-2efvkvky",
			"pbrMetallicRoughness":{
				"baseColorTexture":{
					"index":1
				},
				"metallicFactor":0,
				"roughnessFactor":0.5
			}
		}
	],
	"meshes":[
		{
			"name":"Board 16-9_Board_0.001",
			"primitives":[
				{
					"attributes":{
						"POSITION":0,
						"NORMAL":1,
						"TEXCOORD_0":2
					},
					"indices":3,
					"material":0
				}
			]
		},
		{
			"name":"Frame 16-9_02 - Default_0.001",
			"primitives":[
				{
					"attributes":{
						"POSITION":4,
						"NORMAL":5,
						"TEXCOORD_0":6
					},
					"indices":7,
					"material":1
				}
			]
		},
		{
			"name":"Text",
			"primitives":[
				{
					"attributes":{
						"POSITION":8,
						"NORMAL":9,
						"TEXCOORD_0":10
					},
					"indices":11,
					"material":2
				}
			]
		},
		{
			"name":"Text.001",
			"primitives":[
				{
					"attributes":{
						"POSITION":12,
						"NORMAL":13,
						"TEXCOORD_0":14
					},
					"indices":15,
					"material":2
				}
			]
		},
		{
			"name":"Text.002",
			"primitives":[
				{
					"attributes":{
						"POSITION":16,
						"NORMAL":17,
						"TEXCOORD_0":18
					},
					"indices":19,
					"material":2
				}
			]
		},
		{
			"name":"Text.003",
			"primitives":[
				{
					"attributes":{
						"POSITION":20,
						"NORMAL":21,
						"TEXCOORD_0":22
					},
					"indices":23,
					"material":2
				}
			]
		},
		{
			"name":"Text.004",
			"primitives":[
				{
					"attributes":{
						"POSITION":24,
						"NORMAL":25,
						"TEXCOORD_0":26
					},
					"indices":27,
					"material":2
				}
			]
		},
		{
			"name":"Text.005",
			"primitives":[
				{
					"attributes":{
						"POSITION":28,
						"NORMAL":29,
						"TEXCOORD_0":30
					},
					"indices":31,
					"material":2
				}
			]
		},
		{
			"name":"GitHub-logo",
			"primitives":[
				{
					"attributes":{
						"POSITION":32,
						"NORMAL":33,
						"TEXCOORD_0":34
					},
					"indices":35,
					"material":3
				}
			]
		},
		{
			"name":"spring-icon-256x256-2efvkvky",
			"primitives":[
				{
					"attributes":{
						"POSITION":36,
						"NORMAL":37,
						"TEXCOORD_0":38
					},
					"indices":35,
					"material":4
				}
			]
		}
	],
	"textures":[
		{
			"sampler":0,
			"source":0
		},
		{
			"sampler":0,
			"source":1
		}
	],
	"images":[
		{
			"mimeType":"image/png",
			"name":"GitHub-logo",
			"uri":"GitHub-logo.png"
		},
		{
			"mimeType":"image/png",
			"name":"spring-icon-256x256-2efvkvky",
			"uri":"spring-icon-256x256-2efvkvky.png"
		}
	],
	"accessors":[
		{
			"bufferView":0,
			"componentType":5126,
			"count":4,
			"max":[
				7.525432586669922,
				4.0254316329956055,
				0.3559274673461914
			],
			"min":[
				-7.525432586669922,
				-4.025432586669922,
				0.355926513671875
			],
			"type":"VEC3"
		},
		{
			"bufferView":1,
			"componentType":5126,
			"count":4,
			"type":"VEC3"
		},
		{
			"bufferView":2,
			"componentType":5126,
			"count":4,
			"type":"VEC2"
		},
		{
			"bufferView":3,
			"componentType":5123,
			"count":6,
			"type":"SCALAR"
		},
		{
			"bufferView":4,
			"componentType":5126,
			"count":96,
			"max":[
				7.934787750244141,
				4.346949577331543,
				0.7230453491210938
			],
			"min":[
				-7.839025497436523,
				-7.845816612243652,
				0
			],
			"type":"VEC3"
		},
		{
			"bufferView":5,
			"componentType":5126,
			"count":96,
			"type":"VEC3"
		},
		{
			"bufferView":6,
			"componentType":5126,
			"count":96,
			"type":"VEC2"
		},
		{
			"bufferView":7,
			"componentType":5123,
			"count":126,
			"type":"SCALAR"
		},
		{
			"bufferView":8,
			"componentType":5126,
			"count":3182,
			"max":[
				3.609666347503662,
				0,
				0.018403979018330574
			],
			"min":[
				0.0029844287782907486,
				0,
				-0.709796667098999
			],
			"type":"VEC3"
		},
		{
			"bufferView":9,
			"componentType":5126,
			"count":3182,
			"type":"VEC3"
		},
		{
			"bufferView":10,
			"componentType":5126,
			"count":3182,
			"type":"VEC2"
		},
		{
			"bufferView":11,
			"componentType":5123,
			"count":9522,
			"type":"SCALAR"
		},
		{
			"bufferView":12,
			"componentType":5126,
			"count":4261,
			"max":[
				7.39171838760376,
				0,
				0.8386920690536499
			],
			"min":[
				0.005885000340640545,
				0,
				-0.24923773109912872
			],
			"type":"VEC3"
		},
		{
			"bufferView":13,
			"componentType":5126,
			"count":4261,
			"type":"VEC3"
		},
		{
			"bufferView":14,
			"componentType":5126,
			"count":4261,
			"type":"VEC2"
		},
		{
			"bufferView":15,
			"componentType":5123,
			"count":11970,
			"type":"SCALAR"
		},
		{
			"bufferView":16,
			"componentType":5126,
			"count":1288,
			"max":[
				2.5519113540649414,
				0,
				0.07223498821258545
			],
			"min":[
				0.004893968813121319,
				0,
				-0.30636245012283325
			],
			"type":"VEC3"
		},
		{
			"bufferView":17,
			"componentType":5126,
			"count":1288,
			"type":"VEC3"
		},
		{
			"bufferView":18,
			"componentType":5126,
			"count":1288,
			"type":"VEC2"
		},
		{
			"bufferView":19,
			"componentType":5123,
			"count":3792,
			"type":"SCALAR"
		},
		{
			"bufferView":20,
			"componentType":5126,
			"count":6870,
			"max":[
				7.380184173583984,
				0,
				0.42568179965019226
			],
			"min":[
				0.011468208394944668,
				0,
				-0.23645633459091187
			],
			"type":"VEC3"
		},
		{
			"bufferView":21,
			"componentType":5126,
			"count":6870,
			"type":"VEC3"
		},
		{
			"bufferView":22,
			"componentType":5126,
			"count":6870,
			"type":"VEC2"
		},
		{
			"bufferView":23,
			"componentType":5123,
			"count":20169,
			"type":"SCALAR"
		},
		{
			"bufferView":24,
			"componentType":5126,
			"count":287,
			"max":[
				0.6477658152580261,
				0,
				0.0007830350659787655
			],
			"min":[
				0.01840132474899292,
				0,
				-0.30636245012283325
			],
			"type":"VEC3"
		},
		{
			"bufferView":25,
			"componentType":5126,
			"count":287,
			"type":"VEC3"
		},
		{
			"bufferView":26,
			"componentType":5126,
			"count":287,
			"type":"VEC2"
		},
		{
			"bufferView":27,
			"componentType":5123,
			"count":837,
			"type":"SCALAR"
		},
		{
			"bufferView":28,
			"componentType":5126,
			"count":4398,
			"max":[
				7.71030330657959,
				0,
				0.8386920690536499
			],
			"min":[
				0.003976351581513882,
				0,
				-0.24891960620880127
			],
			"type":"VEC3"
		},
		{
			"bufferView":29,
			"componentType":5126,
			"count":4398,
			"type":"VEC3"
		},
		{
			"bufferView":30,
			"componentType":5126,
			"count":4398,
			"type":"VEC2"
		},
		{
			"bufferView":31,
			"componentType":5123,
			"count":12315,
			"type":"SCALAR"
		},
		{
			"bufferView":32,
			"componentType":5126,
			"count":4,
			"max":[
				0.8888888955116272,
				0,
				0.5
			],
			"min":[
				-0.8888888955116272,
				0,
				-0.5
			],
			"type":"VEC3"
		},
		{
			"bufferView":33,
			"componentType":5126,
			"count":4,
			"type":"VEC3"
		},
		{
			"bufferView":34,
			"componentType":5126,
			"count":4,
			"type":"VEC2"
		},
		{
			"bufferView":35,
			"componentType":5123,
			"count":6,
			"type":"SCALAR"
		},
		{
			"bufferView":36,
			"componentType":5126,
			"count":4,
			"max":[
				0.5,
				0,
				0.5
			],
			"min":[
				-0.5,
				0,
				-0.5
			],
			"type":"VEC3"
		},
		{
			"bufferView":37,
			"componentType":5126,
			"count":4,
			"type":"VEC3"
		},
		{
			"bufferView":38,
			"componentType":5126,
			"count":4,
			"type":"VEC2"
		}
	],
	"bufferViews":[
		{
			"buffer":0,
			"byteLength":48,
			"byteOffset":0,
			"target":34962
		},
		{
			"buffer":0,
			"byteLength":48,
			"byteOffset":48,
			"target":34962
		},
		{
			"buffer":0,
			"byteLength":32,
			"byteOffset":96,
			"target":34962
		},
		{
			"buffer":0,
			"byteLength":12,
			"byteOffset":128,
			"target":34963
		},
		{
			"buffer":0,
			"byteLength":1152,
			"byteOffset":140,
			"target":34962
		},
		{
			"buffer":0,
			"byteLength":1152,
			"byteOffset":1292,
			"target":34962
		},
		{
			"buffer":0,
			"byteLength":768,
			"byteOffset":2444,
			"target":34962
		},
		{
			"buffer":0,
			"byteLength":252,
			"byteOffset":3212,
			"target":34963
		},
		{
			"buffer":0,
			"byteLength":38184,
			"byteOffset":3464,
			"target":34962
		},
		{
			"buffer":0,
			"byteLength":38184,
			"byteOffset":41648,
			"target":34962
		},
		{
			"buffer":0,
			"byteLength":25456,
			"byteOffset":79832,
			"target":34962
		},
		{
			"buffer":0,
			"byteLength":19044,
			"byteOffset":105288,
			"target":34963
		},
		{
			"buffer":0,
			"byteLength":51132,
			"byteOffset":124332,
			"target":34962
		},
		{
			"buffer":0,
			"byteLength":51132,
			"byteOffset":175464,
			"target":34962
		},
		{
			"buffer":0,
			"byteLength":34088,
			"byteOffset":226596,
			"target":34962
		},
		{
			"buffer":0,
			"byteLength":23940,
			"byteOffset":260684,
			"target":34963
		},
		{
			"buffer":0,
			"byteLength":15456,
			"byteOffset":284624,
			"target":34962
		},
		{
			"buffer":0,
			"byteLength":15456,
			"byteOffset":300080,
			"target":34962
		},
		{
			"buffer":0,
			"byteLength":10304,
			"byteOffset":315536,
			"target":34962
		},
		{
			"buffer":0,
			"byteLength":7584,
			"byteOffset":325840,
			"target":34963
		},
		{
			"buffer":0,
			"byteLength":82440,
			"byteOffset":333424,
			"target":34962
		},
		{
			"buffer":0,
			"byteLength":82440,
			"byteOffset":415864,
			"target":34962
		},
		{
			"buffer":0,
			"byteLength":54960,
			"byteOffset":498304,
			"target":34962
		},
		{
			"buffer":0,
			"byteLength":40338,
			"byteOffset":553264,
			"target":34963
		},
		{
			"buffer":0,
			"byteLength":3444,
			"byteOffset":593604,
			"target":34962
		},
		{
			"buffer":0,
			"byteLength":3444,
			"byteOffset":597048,
			"target":34962
		},
		{
			"buffer":0,
			"byteLength":2296,
			"byteOffset":600492,
			"target":34962
		},
		{
			"buffer":0,
			"byteLength":1674,
			"byteOffset":602788,
			"target":34963
		},
		{
			"buffer":0,
			"byteLength":52776,
			"byteOffset":604464,
			"target":34962
		},
		{
			"buffer":0,
			"byteLength":52776,
			"byteOffset":657240,
			"target":34962
		},
		{
			"buffer":0,
			"byteLength":35184,
			"byteOffset":710016,
			"target":34962
		},
		{
			"buffer":0,
			"byteLength":24630,
			"byteOffset":745200,
			"target":34963
		},
		{
			"buffer":0,
			"byteLength":48,
			"byteOffset":769832,
			"target":34962
		},
		{
			"buffer":0,
			"byteLength":48,
			"byteOffset":769880,
			"target":34962
		},
		{
			"buffer":0,
			"byteLength":32,
			"byteOffset":769928,
			"target":34962
		},
		{
			"buffer":0,
			"byteLength":12,
			"byteOffset":769960,
			"target":34963
		},
		{
			"buffer":0,
			"byteLength":48,
			"byteOffset":769972,
			"target":34962
		},
		{
			"buffer":0,
			"byteLength":48,
			"byteOffset":770020,
			"target":34962
		},
		{
			"buffer":0,
			"byteLength":32,
			"byteOffset":770068,
			"target":34962
		}
	],
	"samplers":[
		{
			"magFilter":9729,
			"minFilter":9987,
			"wrapS":33071,
			"wrapT":33071
		}
	],
	"buffers":[
		{
			"byteLength":770100,
			"uri":"untitled.bin"
		}
	]
}
