{
	"asset":{
		"generator":"Khronos glTF Blender I/O v4.0.44",
		"version":"2.0"
	},
	"scene":0,
	"scenes":[
		{
			"name":"Scene",
			"nodes":[
				4,
				11,
				12,
				13,
				14,
				15,
				16,
				17
			]
		}
	],
	"nodes":[
		{
			"name":"Board 16-9",
			"translation":[
				16.203737258911133,
				6.482414245605469,
				-3.022632122039795
			]
		},
		{
			"name":"Frame 16-9",
			"translation":[
				16.203737258911133,
				6.482414245605469,
				-3.022632122039795
			]
		},
		{
			"children":[
				0,
				1
			],
			"name":"RootNode"
		},
		{
			"children":[
				2
			],
			"name":"19b55c6d9e804c43a72714989d491082.fbx",
			"rotation":[
				0.70710688829422,
				0,
				0,
				0.7071066498756409
			]
		},
		{
			"children":[
				3
			],
			"name":"Sketchfab_model",
			"rotation":[
				-0.7071066498756409,
				0,
				0,
				0.70710688829422
			]
		},
		{
			"mesh":0,
			"name":"Board 16-9_Board_0"
		},
		{
			"children":[
				5
			],
			"name":"Board 16-9.001",
			"translation":[
				16.203737258911133,
				6.482414245605469,
				-3.022632122039795
			]
		},
		{
			"mesh":1,
			"name":"Frame 16-9_02 - Default_0"
		},
		{
			"children":[
				7
			],
			"name":"Frame 16-9.001",
			"translation":[
				16.203737258911133,
				6.482414245605469,
				-3.022632122039795
			]
		},
		{
			"children":[
				6,
				8
			],
			"name":"RootNode.001"
		},
		{
			"children":[
				9
			],
			"name":"19b55c6d9e804c43a72714989d491082.fbx.001",
			"rotation":[
				0.70710688829422,
				0,
				0,
				0.7071066498756409
			]
		},
		{
			"children":[
				10
			],
			"name":"Sketchfab_model.001",
			"rotation":[
				-0.70710688829422,
				0,
				0,
				0.7071066498756409
			]
		},
		{
			"mesh":2,
			"name":"Title",
			"rotation":[
				0.70509272813797,
				0,
				0,
				0.7091151475906372
			],
			"translation":[
				15.619600296020508,
				9.388978958129883,
				-2.6462182998657227
			]
		},
		{
			"mesh":3,
			"name":"opis",
			"rotation":[
				0.70509272813797,
				0,
				0,
				0.7091151475906372
			],
			"translation":[
				15.619600296020508,
				8.375041961669922,
				-2.6462182998657227
			]
		},
		{
			"mesh":4,
			"name":"Title.001",
			"rotation":[
				0.70509272813797,
				0,
				0,
				0.7091151475906372
			],
			"translation":[
				15.619600296020508,
				6.967142581939697,
				-2.6462182998657227
			]
		},
		{
			"mesh":5,
			"name":"opis.001",
			"rotation":[
				0.70509272813797,
				0,
				0,
				0.7091151475906372
			],
			"translation":[
				15.619600296020508,
				6.131948947906494,
				-2.6462182998657227
			]
		},
		{
			"name":"opis.002",
			"rotation":[
				0.70509272813797,
				0,
				0,
				0.7091151475906372
			],
			"translation":[
				15.619600296020508,
				7.172771453857422,
				-2.6462182998657227
			]
		},
		{
			"mesh":6,
			"name":"GitHub-logo",
			"rotation":[
				0.7071068286895752,
				0,
				0,
				0.7071068286895752
			],
			"scale":[
				1.2972697019577026,
				1,
				1.2972697019577026
			],
			"translation":[
				11.848899841308594,
				4.534560203552246,
				-2.638360023498535
			]
		}
	],
	"materials":[
		{
			"doubleSided":true,
			"name":"Board.001",
			"pbrMetallicRoughness":{
				"baseColorFactor":[
					0.4310835003852844,
					0.3826519846916199,
					0.3627702593803406,
					1
				],
				"metallicFactor":0.7009345889091492,
				"roughnessFactor":0.5065420866012573
			}
		},
		{
			"doubleSided":true,
			"name":"02_-_Default.001",
			"pbrMetallicRoughness":{
				"baseColorFactor":[
					0.9215689897537231,
					0.9215689897537231,
					0.9215689897537231,
					1
				],
				"metallicFactor":0,
				"roughnessFactor":0.6000000238418579
			}
		},
		{
			"doubleSided":true,
			"name":"Material.007",
			"pbrMetallicRoughness":{
				"baseColorFactor":[
					0.800000011920929,
					0.800000011920929,
					0.800000011920929,
					1
				],
				"metallicFactor":0,
				"roughnessFactor":0.5
			}
		},
		{
			"alphaMode":"BLEND",
			"doubleSided":true,
			"name":"GitHub-logo",
			"pbrMetallicRoughness":{
				"baseColorTexture":{
					"index":0
				},
				"metallicFactor":0,
				"roughnessFactor":0.5
			}
		}
	],
	"meshes":[
		{
			"name":"Board 16-9_Board_0.001",
			"primitives":[
				{
					"attributes":{
						"POSITION":0,
						"NORMAL":1,
						"TEXCOORD_0":2
					},
					"indices":3,
					"material":0
				}
			]
		},
		{
			"name":"Frame 16-9_02 - Default_0.001",
			"primitives":[
				{
					"attributes":{
						"POSITION":4,
						"NORMAL":5,
						"TEXCOORD_0":6
					},
					"indices":7,
					"material":1
				}
			]
		},
		{
			"name":"Text",
			"primitives":[
				{
					"attributes":{
						"POSITION":8,
						"NORMAL":9,
						"TEXCOORD_0":10
					},
					"indices":11,
					"material":2
				}
			]
		},
		{
			"name":"Text.001",
			"primitives":[
				{
					"attributes":{
						"POSITION":12,
						"NORMAL":13,
						"TEXCOORD_0":14
					},
					"indices":15,
					"material":2
				}
			]
		},
		{
			"name":"Text.002",
			"primitives":[
				{
					"attributes":{
						"POSITION":16,
						"NORMAL":17,
						"TEXCOORD_0":18
					},
					"indices":19,
					"material":2
				}
			]
		},
		{
			"name":"Text.003",
			"primitives":[
				{
					"attributes":{
						"POSITION":20,
						"NORMAL":21,
						"TEXCOORD_0":22
					},
					"indices":23,
					"material":2
				}
			]
		},
		{
			"name":"GitHub-logo",
			"primitives":[
				{
					"attributes":{
						"POSITION":24,
						"NORMAL":25,
						"TEXCOORD_0":26
					},
					"indices":27,
					"material":3
				}
			]
		}
	],
	"textures":[
		{
			"sampler":0,
			"source":0
		}
	],
	"images":[
		{
			"mimeType":"image/png",
			"name":"GitHub-logo",
			"uri":"GitHub-logo.png"
		}
	],
	"accessors":[
		{
			"bufferView":0,
			"componentType":5126,
			"count":4,
			"max":[
				7.525432586669922,
				4.0254316329956055,
				0.3559274673461914
			],
			"min":[
				-7.525432586669922,
				-4.025432586669922,
				0.355926513671875
			],
			"type":"VEC3"
		},
		{
			"bufferView":1,
			"componentType":5126,
			"count":4,
			"type":"VEC3"
		},
		{
			"bufferView":2,
			"componentType":5126,
			"count":4,
			"type":"VEC2"
		},
		{
			"bufferView":3,
			"componentType":5123,
			"count":6,
			"type":"SCALAR"
		},
		{
			"bufferView":4,
			"componentType":5126,
			"count":96,
			"max":[
				7.934787750244141,
				4.346949577331543,
				0.7230453491210938
			],
			"min":[
				-7.839025497436523,
				-7.845816612243652,
				0
			],
			"type":"VEC3"
		},
		{
			"bufferView":5,
			"componentType":5126,
			"count":96,
			"type":"VEC3"
		},
		{
			"bufferView":6,
			"componentType":5126,
			"count":96,
			"type":"VEC2"
		},
		{
			"bufferView":7,
			"componentType":5123,
			"count":126,
			"type":"SCALAR"
		},
		{
			"bufferView":8,
			"componentType":5126,
			"count":853,
			"max":[
				5.5150275230407715,
				0,
				0.0009380097035318613
			],
			"min":[
				0.044086456298828125,
				0,
				-0.7339925169944763
			],
			"type":"VEC3"
		},
		{
			"bufferView":9,
			"componentType":5126,
			"count":853,
			"type":"VEC3"
		},
		{
			"bufferView":10,
			"componentType":5126,
			"count":853,
			"type":"VEC2"
		},
		{
			"bufferView":11,
			"componentType":5123,
			"count":2493,
			"type":"SCALAR"
		},
		{
			"bufferView":12,
			"componentType":5126,
			"count":1627,
			"max":[
				6.359997272491455,
				0,
				0.44869154691696167
			],
			"min":[
				0.003976351581513882,
				0,
				-0.24891960620880127
			],
			"type":"VEC3"
		},
		{
			"bufferView":13,
			"componentType":5126,
			"count":1627,
			"type":"VEC3"
		},
		{
			"bufferView":14,
			"componentType":5126,
			"count":1627,
			"type":"VEC2"
		},
		{
			"bufferView":15,
			"componentType":5123,
			"count":4515,
			"type":"SCALAR"
		},
		{
			"bufferView":16,
			"componentType":5126,
			"count":1288,
			"max":[
				2.5519113540649414,
				0,
				0.07223498821258545
			],
			"min":[
				0.004893968813121319,
				0,
				-0.30636245012283325
			],
			"type":"VEC3"
		},
		{
			"bufferView":17,
			"componentType":5126,
			"count":1288,
			"type":"VEC3"
		},
		{
			"bufferView":18,
			"componentType":5126,
			"count":1288,
			"type":"VEC2"
		},
		{
			"bufferView":19,
			"componentType":5123,
			"count":3792,
			"type":"SCALAR"
		},
		{
			"bufferView":20,
			"componentType":5126,
			"count":2602,
			"max":[
				6.8615193367004395,
				0,
				0.05568116903305054
			],
			"min":[
				0.011468208394944668,
				0,
				-0.23645633459091187
			],
			"type":"VEC3"
		},
		{
			"bufferView":21,
			"componentType":5126,
			"count":2602,
			"type":"VEC3"
		},
		{
			"bufferView":22,
			"componentType":5126,
			"count":2602,
			"type":"VEC2"
		},
		{
			"bufferView":23,
			"componentType":5123,
			"count":7539,
			"type":"SCALAR"
		},
		{
			"bufferView":24,
			"componentType":5126,
			"count":4,
			"max":[
				0.8888888955116272,
				0,
				0.5
			],
			"min":[
				-0.8888888955116272,
				0,
				-0.5
			],
			"type":"VEC3"
		},
		{
			"bufferView":25,
			"componentType":5126,
			"count":4,
			"type":"VEC3"
		},
		{
			"bufferView":26,
			"componentType":5126,
			"count":4,
			"type":"VEC2"
		},
		{
			"bufferView":27,
			"componentType":5123,
			"count":6,
			"type":"SCALAR"
		}
	],
	"bufferViews":[
		{
			"buffer":0,
			"byteLength":48,
			"byteOffset":0,
			"target":34962
		},
		{
			"buffer":0,
			"byteLength":48,
			"byteOffset":48,
			"target":34962
		},
		{
			"buffer":0,
			"byteLength":32,
			"byteOffset":96,
			"target":34962
		},
		{
			"buffer":0,
			"byteLength":12,
			"byteOffset":128,
			"target":34963
		},
		{
			"buffer":0,
			"byteLength":1152,
			"byteOffset":140,
			"target":34962
		},
		{
			"buffer":0,
			"byteLength":1152,
			"byteOffset":1292,
			"target":34962
		},
		{
			"buffer":0,
			"byteLength":768,
			"byteOffset":2444,
			"target":34962
		},
		{
			"buffer":0,
			"byteLength":252,
			"byteOffset":3212,
			"target":34963
		},
		{
			"buffer":0,
			"byteLength":10236,
			"byteOffset":3464,
			"target":34962
		},
		{
			"buffer":0,
			"byteLength":10236,
			"byteOffset":13700,
			"target":34962
		},
		{
			"buffer":0,
			"byteLength":6824,
			"byteOffset":23936,
			"target":34962
		},
		{
			"buffer":0,
			"byteLength":4986,
			"byteOffset":30760,
			"target":34963
		},
		{
			"buffer":0,
			"byteLength":19524,
			"byteOffset":35748,
			"target":34962
		},
		{
			"buffer":0,
			"byteLength":19524,
			"byteOffset":55272,
			"target":34962
		},
		{
			"buffer":0,
			"byteLength":13016,
			"byteOffset":74796,
			"target":34962
		},
		{
			"buffer":0,
			"byteLength":9030,
			"byteOffset":87812,
			"target":34963
		},
		{
			"buffer":0,
			"byteLength":15456,
			"byteOffset":96844,
			"target":34962
		},
		{
			"buffer":0,
			"byteLength":15456,
			"byteOffset":112300,
			"target":34962
		},
		{
			"buffer":0,
			"byteLength":10304,
			"byteOffset":127756,
			"target":34962
		},
		{
			"buffer":0,
			"byteLength":7584,
			"byteOffset":138060,
			"target":34963
		},
		{
			"buffer":0,
			"byteLength":31224,
			"byteOffset":145644,
			"target":34962
		},
		{
			"buffer":0,
			"byteLength":31224,
			"byteOffset":176868,
			"target":34962
		},
		{
			"buffer":0,
			"byteLength":20816,
			"byteOffset":208092,
			"target":34962
		},
		{
			"buffer":0,
			"byteLength":15078,
			"byteOffset":228908,
			"target":34963
		},
		{
			"buffer":0,
			"byteLength":48,
			"byteOffset":243988,
			"target":34962
		},
		{
			"buffer":0,
			"byteLength":48,
			"byteOffset":244036,
			"target":34962
		},
		{
			"buffer":0,
			"byteLength":32,
			"byteOffset":244084,
			"target":34962
		},
		{
			"buffer":0,
			"byteLength":12,
			"byteOffset":244116,
			"target":34963
		}
	],
	"samplers":[
		{
			"magFilter":9729,
			"minFilter":9987,
			"wrapS":33071,
			"wrapT":33071
		}
	],
	"buffers":[
		{
			"byteLength":244128,
			"uri":"untitled.bin"
		}
	]
}
