{
  "accessors": [
    {
      "bufferView": 2,
      "componentType": 5126,
      "count": 62,
      "max": [
        90.12460327148438,
        687.6694946289063,
        61.4567756652832
      ],
      "min": [
        -90.12460327148438,
        516.3792724609375,
        1.4999999621068127e-05
      ],
      "type": "VEC3"
    },
    {
      "bufferView": 2,
      "byteOffset": 744,
      "componentType": 5126,
      "count": 62,
      "max": [
        0.9112033247947693,
        0.9661526679992676,
        0.9912657737731934
      ],
      "min": [
        -0.9184331297874451,
        -0.9278141260147095,
        -1.0
      ],
      "type": "VEC3"
    },
    {
      "bufferView": 3,
      "componentType": 5126,
      "count": 62,
      "max": [
        1.0,
        0.9547164440155029,
        0.20284801721572876,
        1.0
      ],
      "min": [
        -0.9854965209960938,
        -0.9933233261108398,
        -0.7297433614730835,
        1.0
      ],
      "type": "VEC4"
    },
    {
      "bufferView": 1,
      "componentType": 5126,
      "count": 62,
      "max": [
        0.9928179979324341,
        0.9971230030059814
      ],
      "min": [
        0.008400999940931797,
        0.006829000078141689
      ],
      "type": "VEC2"
    },
    {
      "bufferView": 0,
      "componentType": 5125,
      "count": 96,
      "type": "SCALAR"
    },
    {
      "bufferView": 2,
      "byteOffset": 1488,
      "componentType": 5126,
      "count": 62,
      "max": [
        79.75254821777344,
        373.0078430175781,
        117.45021057128906
      ],
      "min": [
        -79.75254821777344,
        231.04086303710938,
        -9.999999747378752e-06
      ],
      "type": "VEC3"
    },
    {
      "bufferView": 2,
      "byteOffset": 2232,
      "componentType": 5126,
      "count": 62,
      "max": [
        0.9799772500991821,
        0.9133835434913635,
        0.976306140422821
      ],
      "min": [
        -0.9366216063499451,
        -0.9772525429725647,
        -1.0
      ],
      "type": "VEC3"
    },
    {
      "bufferView": 3,
      "byteOffset": 992,
      "componentType": 5126,
      "count": 62,
      "max": [
        0.9995125532150269,
        0.999912679195404,
        0.1035749614238739,
        1.0
      ],
      "min": [
        -0.9809521436691284,
        -1.0,
        -0.2271338850259781,
        1.0
      ],
      "type": "VEC4"
    },
    {
      "bufferView": 1,
      "byteOffset": 496,
      "componentType": 5126,
      "count": 62,
      "max": [
        0.9947789907455444,
        0.9968060255050659
      ],
      "min": [
        0.0073640001937747,
        0.010169999673962593
      ],
      "type": "VEC2"
    },
    {
      "bufferView": 0,
      "byteOffset": 384,
      "componentType": 5125,
      "count": 96,
      "type": "SCALAR"
    },
    {
      "bufferView": 2,
      "byteOffset": 2976,
      "componentType": 5126,
      "count": 64,
      "max": [
        55.787254333496094,
        52.986576080322266,
        131.03164672851563
      ],
      "min": [
        -56.0201301574707,
        -60.851680755615234,
        -3.000000106112566e-06
      ],
      "type": "VEC3"
    },
    {
      "bufferView": 2,
      "byteOffset": 3744,
      "componentType": 5126,
      "count": 64,
      "max": [
        0.9328956604003906,
        0.9487900137901306,
        0.9519042372703552
      ],
      "min": [
        -0.7891010046005249,
        -0.788884699344635,
        -1.0
      ],
      "type": "VEC3"
    },
    {
      "bufferView": 3,
      "byteOffset": 1984,
      "componentType": 5126,
      "count": 64,
      "max": [
        0.850109875202179,
        0.9077239036560059,
        0.9814481139183044,
        1.0
      ],
      "min": [
        -0.9428243041038513,
        -0.7552534341812134,
        -0.2575142979621887,
        1.0
      ],
      "type": "VEC4"
    },
    {
      "bufferView": 1,
      "byteOffset": 992,
      "componentType": 5126,
      "count": 64,
      "max": [
        0.9855279922485352,
        0.9962350130081177
      ],
      "min": [
        0.013636999763548374,
        0.01712699979543686
      ],
      "type": "VEC2"
    },
    {
      "bufferView": 0,
      "byteOffset": 768,
      "componentType": 5125,
      "count": 96,
      "type": "SCALAR"
    },
    {
      "bufferView": 2,
      "byteOffset": 4512,
      "componentType": 5126,
      "count": 78,
      "max": [
        91.06485748291016,
        -202.00247192382813,
        86.1624755859375
      ],
      "min": [
        -87.25828552246094,
        -405.90032958984375,
        3.999999989900971e-06
      ],
      "type": "VEC3"
    },
    {
      "bufferView": 2,
      "byteOffset": 5448,
      "componentType": 5126,
      "count": 78,
      "max": [
        0.9199961423873901,
        0.9095872640609741,
        0.9623347520828247
      ],
      "min": [
        -0.9468095302581787,
        -0.8192178606987,
        -1.0
      ],
      "type": "VEC3"
    },
    {
      "bufferView": 3,
      "byteOffset": 3008,
      "componentType": 5126,
      "count": 78,
      "max": [
        0.8789346218109131,
        0.9692050218582153,
        0.9972625970840454,
        1.0
      ],
      "min": [
        -0.9103624224662781,
        -0.9677619934082031,
        -0.24519725143909454,
        1.0
      ],
      "type": "VEC4"
    },
    {
      "bufferView": 1,
      "byteOffset": 1504,
      "componentType": 5126,
      "count": 78,
      "max": [
        0.9886329770088196,
        0.9935169816017151
      ],
      "min": [
        0.0016270000487565994,
        0.01357599999755621
      ],
      "type": "VEC2"
    },
    {
      "bufferView": 0,
      "byteOffset": 1152,
      "componentType": 5125,
      "count": 120,
      "type": "SCALAR"
    },
    {
      "bufferView": 2,
      "byteOffset": 6384,
      "componentType": 5126,
      "count": 62,
      "max": [
        81.49507904052734,
        -540.552001953125,
        70.1790542602539
      ],
      "min": [
        -83.54651641845703,
        -689.2974853515625,
        -5.9007248878479
      ],
      "type": "VEC3"
    },
    {
      "bufferView": 2,
      "byteOffset": 7128,
      "componentType": 5126,
      "count": 62,
      "max": [
        0.9220102429389954,
        0.9892422556877136,
        0.8612073063850403
      ],
      "min": [
        -0.8677613139152527,
        -0.7993276715278625,
        -0.9980562329292297
      ],
      "type": "VEC3"
    },
    {
      "bufferView": 3,
      "byteOffset": 4256,
      "componentType": 5126,
      "count": 62,
      "max": [
        0.796572744846344,
        0.9414364695549011,
        0.48124057054519653,
        1.0
      ],
      "min": [
        -0.9887474775314331,
        -0.9018452763557434,
        -0.14352808892726898,
        1.0
      ],
      "type": "VEC4"
    },
    {
      "bufferView": 1,
      "byteOffset": 2128,
      "componentType": 5126,
      "count": 62,
      "max": [
        0.9887300133705139,
        0.9933329820632935
      ],
      "min": [
        0.013593999668955803,
        0.028804000467061996
      ],
      "type": "VEC2"
    },
    {
      "bufferView": 0,
      "byteOffset": 1632,
      "componentType": 5125,
      "count": 96,
      "type": "SCALAR"
    }
  ],
  "asset": {
    "extras": {
      "author": "louis-muir (https://sketchfab.com/louir-muir)",
      "license": "CC-BY-4.0 (http://creativecommons.org/licenses/by/4.0/)",
      "source": "https://sketchfab.com/3d-models/low-poly-rock-set-48f8612d1db1429d976f8d4f08ed0f0c",
      "title": "Low Poly Rock Set"
    },
    "generator": "Sketchfab-12.66.0",
    "version": "2.0"
  },
  "bufferViews": [
    {
      "buffer": 0,
      "byteLength": 2016,
      "name": "floatBufferViews",
      "target": 34963
    },
    {
      "buffer": 0,
      "byteLength": 2624,
      "byteOffset": 2016,
      "byteStride": 8,
      "name": "floatBufferViews",
      "target": 34962
    },
    {
      "buffer": 0,
      "byteLength": 7872,
      "byteOffset": 4640,
      "byteStride": 12,
      "name": "floatBufferViews",
      "target": 34962
    },
    {
      "buffer": 0,
      "byteLength": 5248,
      "byteOffset": 12512,
      "byteStride": 16,
      "name": "floatBufferViews",
      "target": 34962
    }
  ],
  "buffers": [
    {
      "byteLength": 17760,
      "uri": "scene.bin"
    }
  ],
  "images": [
    {
      "uri": "textures/initialShadingGroup_baseColor.png"
    },
    {
      "uri": "textures/initialShadingGroup_metallicRoughness.png"
    },
    {
      "uri": "textures/initialShadingGroup_normal.png"
    },
    {
      "uri": "textures/initialShadingGroup_0_baseColor.png"
    },
    {
      "uri": "textures/initialShadingGroup_0_metallicRoughness.png"
    },
    {
      "uri": "textures/initialShadingGroup_0_normal.png"
    },
    {
      "uri": "textures/initialShadingGroup_1_baseColor.png"
    },
    {
      "uri": "textures/initialShadingGroup_1_metallicRoughness.png"
    },
    {
      "uri": "textures/initialShadingGroup_1_normal.png"
    },
    {
      "uri": "textures/initialShadingGroup_2_baseColor.png"
    },
    {
      "uri": "textures/initialShadingGroup_2_metallicRoughness.png"
    },
    {
      "uri": "textures/initialShadingGroup_2_normal.png"
    },
    {
      "uri": "textures/initialShadingGroup_3_baseColor.png"
    },
    {
      "uri": "textures/initialShadingGroup_3_metallicRoughness.png"
    },
    {
      "uri": "textures/initialShadingGroup_3_normal.png"
    }
  ],
  "materials": [
    {
      "doubleSided": true,
      "name": "initialShadingGroup",
      "normalTexture": {
        "index": 2
      },
      "pbrMetallicRoughness": {
        "baseColorTexture": {
          "index": 0
        },
        "metallicFactor": 0.0,
        "metallicRoughnessTexture": {
          "index": 1
        }
      }
    },
    {
      "doubleSided": true,
      "name": "initialShadingGroup_0",
      "normalTexture": {
        "index": 5
      },
      "pbrMetallicRoughness": {
        "baseColorTexture": {
          "index": 3
        },
        "metallicFactor": 0.0,
        "metallicRoughnessTexture": {
          "index": 4
        }
      }
    },
    {
      "doubleSided": true,
      "name": "initialShadingGroup_1",
      "normalTexture": {
        "index": 8
      },
      "pbrMetallicRoughness": {
        "baseColorTexture": {
          "index": 6
        },
        "metallicFactor": 0.0,
        "metallicRoughnessTexture": {
          "index": 7
        }
      }
    },
    {
      "doubleSided": true,
      "name": "initialShadingGroup_2",
      "normalTexture": {
        "index": 11
      },
      "pbrMetallicRoughness": {
        "baseColorTexture": {
          "index": 9
        },
        "metallicFactor": 0.0,
        "metallicRoughnessTexture": {
          "index": 10
        }
      }
    },
    {
      "doubleSided": true,
      "name": "initialShadingGroup_3",
      "normalTexture": {
        "index": 14
      },
      "pbrMetallicRoughness": {
        "baseColorTexture": {
          "index": 12
        },
        "metallicFactor": 0.0,
        "metallicRoughnessTexture": {
          "index": 13
        }
      }
    }
  ],
  "meshes": [
    {
      "name": "Object_0",
      "primitives": [
        {
          "attributes": {
            "NORMAL": 1,
            "POSITION": 0,
            "TANGENT": 2,
            "TEXCOORD_0": 3
          },
          "indices": 4,
          "material": 4,
          "mode": 4
        }
      ]
    },
    {
      "name": "Object_1",
      "primitives": [
        {
          "attributes": {
            "NORMAL": 6,
            "POSITION": 5,
            "TANGENT": 7,
            "TEXCOORD_0": 8
          },
          "indices": 9,
          "material": 3,
          "mode": 4
        }
      ]
    },
    {
      "name": "Object_2",
      "primitives": [
        {
          "attributes": {
            "NORMAL": 11,
            "POSITION": 10,
            "TANGENT": 12,
            "TEXCOORD_0": 13
          },
          "indices": 14,
          "material": 2,
          "mode": 4
        }
      ]
    },
    {
      "name": "Object_3",
      "primitives": [
        {
          "attributes": {
            "NORMAL": 16,
            "POSITION": 15,
            "TANGENT": 17,
            "TEXCOORD_0": 18
          },
          "indices": 19,
          "material": 1,
          "mode": 4
        }
      ]
    },
    {
      "name": "Object_4",
      "primitives": [
        {
          "attributes": {
            "NORMAL": 21,
            "POSITION": 20,
            "TANGENT": 22,
            "TEXCOORD_0": 23
          },
          "indices": 24,
          "material": 0,
          "mode": 4
        }
      ]
    }
  ],
  "nodes": [
    {
      "children": [
        1
      ],
      "matrix": [
        1.0,
        0.0,
        0.0,
        0.0,
        0.0,
        2.220446049250313e-16,
        -1.0,
        0.0,
        0.0,
        1.0,
        2.220446049250313e-16,
        0.0,
        0.0,
        0.0,
        0.0,
        1.0
      ],
      "name": "Sketchfab_model"
    },
    {
      "children": [
        2,
        4,
        6,
        8,
        10
      ],
      "name": "zbrush_concat.osgb.cleaner.materialmerger.gles"
    },
    {
      "children": [
        3
      ],
      "name": "/sketchfab-data/processing/models/2ece2804c6a842739849d66e70d2d682/48f8612d1db1429d976f8d4f08ed0f0c/51eb6a8d1f824339ba8d3b7d1be8ccac/preprocess/Sketchfab Upload/rock6.obj"
    },
    {
      "mesh": 0,
      "name": "Object_3"
    },
    {
      "children": [
        5
      ],
      "name": "/sketchfab-data/processing/models/2ece2804c6a842739849d66e70d2d682/48f8612d1db1429d976f8d4f08ed0f0c/51eb6a8d1f824339ba8d3b7d1be8ccac/preprocess/Sketchfab Upload/rock5.obj"
    },
    {
      "mesh": 1,
      "name": "Object_5"
    },
    {
      "children": [
        7
      ],
      "name": "/sketchfab-data/processing/models/2ece2804c6a842739849d66e70d2d682/48f8612d1db1429d976f8d4f08ed0f0c/51eb6a8d1f824339ba8d3b7d1be8ccac/preprocess/Sketchfab Upload/rock4.obj"
    },
    {
      "mesh": 2,
      "name": "Object_7"
    },
    {
      "children": [
        9
      ],
      "name": "/sketchfab-data/processing/models/2ece2804c6a842739849d66e70d2d682/48f8612d1db1429d976f8d4f08ed0f0c/51eb6a8d1f824339ba8d3b7d1be8ccac/preprocess/Sketchfab Upload/rock3.obj"
    },
    {
      "mesh": 3,
      "name": "Object_9"
    },
    {
      "children": [
        11
      ],
      "name": "/sketchfab-data/processing/models/2ece2804c6a842739849d66e70d2d682/48f8612d1db1429d976f8d4f08ed0f0c/51eb6a8d1f824339ba8d3b7d1be8ccac/preprocess/Sketchfab Upload/rock1.obj"
    },
    {
      "mesh": 4,
      "name": "Object_11"
    }
  ],
  "samplers": [
    {
      "magFilter": 9729,
      "minFilter": 9987,
      "wrapS": 10497,
      "wrapT": 10497
    }
  ],
  "scene": 0,
  "scenes": [
    {
      "name": "Sketchfab_Scene",
      "nodes": [
        0
      ]
    }
  ],
  "textures": [
    {
      "sampler": 0,
      "source": 0
    },
    {
      "sampler": 0,
      "source": 1
    },
    {
      "sampler": 0,
      "source": 2
    },
    {
      "sampler": 0,
      "source": 3
    },
    {
      "sampler": 0,
      "source": 4
    },
    {
      "sampler": 0,
      "source": 5
    },
    {
      "sampler": 0,
      "source": 6
    },
    {
      "sampler": 0,
      "source": 7
    },
    {
      "sampler": 0,
      "source": 8
    },
    {
      "sampler": 0,
      "source": 9
    },
    {
      "sampler": 0,
      "source": 10
    },
    {
      "sampler": 0,
      "source": 11
    },
    {
      "sampler": 0,
      "source": 12
    },
    {
      "sampler": 0,
      "source": 13
    },
    {
      "sampler": 0,
      "source": 14
    }
  ]
}
